<svg version="1" xmlns="http://www.w3.org/2000/svg" width="2777.333" height="2777.333" viewBox="0 0 2083.000000 2083.000000"><path d="M991 18.2c-.1 7.9-.1 214.7-.1 459.5 0 244.9-.4 445.3-.7 445.3-.4 0-30.6-30.1-67.2-66.9-36.6-36.8-139.9-140.7-229.6-230.8-89.8-90.1-205.2-206-256.5-257.6l-93.4-93.8-35.2 35.2-35.2 35.2 324.8 324.9c178.7 178.6 324.6 325 324.2 325.1-.3.2-206.8.3-458.8.3L5 994.5l-.1 2.5c0 3 0 87.1.1 91.6v3.1l459-.1c252.4-.1 459 0 459 .2 0 .3-303.6 303.4-533.2 532.4L273 1740.6l35.3 35.2 35.2 35.2 75.9-76.2c41.7-42 148.6-149.4 237.6-238.8s200.5-201.4 247.8-249l86-86.5v458.8c0 252.4.3 459.1.5 459.4.5.4 30.7.6 82.2.4l19-.1v-458.9c0-395.2.2-458.8 1.4-457.8.8.7 7 6.8 13.9 13.7 249.7 250.8 346.9 348.5 391.2 393 29.8 30 96.2 96.6 147.5 148.2l93.3 93.6 34.8-34.9c19.2-19.2 35-35.1 35.1-35.2.2-.3-167.3-168.4-458.8-460.5-102.8-102.9-186.9-187.5-186.9-188 0-.4 205.7-.7 457-.6 251.4.1 457.1-.2 457.1-.5.1-.3.2-22.1.3-48.3.1-31.5-.2-47.9-.9-48.1-.5-.2-206.3-.3-457.3-.3-250.9.1-456.1-.2-455.9-.7.1-.4 57.1-57.9 126.7-127.8s150.8-151.5 180.5-181.4c29.7-29.8 117.9-118.5 196-196.9 78.1-78.5 142.1-142.9 142.3-143 .1-.2-15.6-16.2-34.9-35.5l-35.2-35.2-56.9 57.3c-31.4 31.5-130.7 131.3-220.8 221.8-90.1 90.5-210.1 211-266.6 267.8l-102.9 103.4V4H991v14.2z"/></svg>